# xmcd
#
# Track frame offsets: 
#        150
#        12020
#        24945
#        36282
#        49137
#        61137
#        73840
#        85952
#        97977
#        110670
#        124137
#        137195
#        148115
#        159657
#        171040
#        182285
#        193775
#        207025
#        219800
#        232122
#        243940
#        255867
#        267785
#        279572
#        292125
#        303765
#        315220
#
# Disc length: 4353 seconds
#
# Revision: 0
# Processed by: cddbd v1.5.2PL0 Copyright (c) Steve Scherf et al.
# Submitted via: ExactAudioCopy v0.95b4
#
DISCID=7710ff1b
DTITLE=Bob Wills and His Texas Playboys - Legends of Country Music {Di
DTITLE=sc 3}
DYEAR=2006
DGENRE=Western Swing
TTITLE0=New San Antonio Rose
TTITLE1=Liebestraum
TTITLE2=Lyla Lou
TTITLE3=Maiden's Prayer
TTITLE4=The Girl I Left Behind Me
TTITLE5=I Knew The Moment I Lost You
TTITLE6=Twin Guitar Special
TTITLE7=Take Me Back To Tulsa
TTITLE8=Takin' It Home
TTITLE9=Cherokee Maiden
TTITLE10=Dusty Skies
TTITLE11=My Life's Been A Pleasure
TTITLE12=Drop Us Off At Bob's Place
TTITLE13=Home In San Antone
TTITLE14=That Hot Lick Fiddlin' Man
TTITLE15=Miss Molly
TTITLE16=My Confession
TTITLE17=Ten Years
TTITLE18=Let's Ride With Bob
TTITLE19=Bluer Than Blue
TTITLE20=Hang Your Head In Shame
TTITLE21=Texas Playboy Rag
TTITLE22=Roly Poly
TTITLE23=Stay A Little Longer
TTITLE24=I Can't Go On This Way
TTITLE25=I'm Thru Wasting Time On You
TTITLE26=New Spanish Two Step
EXTD=
EXTT0=
EXTT1=
EXTT2=
EXTT3=
EXTT4=
EXTT5=
EXTT6=
EXTT7=
EXTT8=
EXTT9=
EXTT10=
EXTT11=
EXTT12=
EXTT13=
EXTT14=
EXTT15=
EXTT16=
EXTT17=
EXTT18=
EXTT19=
EXTT20=
EXTT21=
EXTT22=
EXTT23=
EXTT24=
EXTT25=
EXTT26=
PLAYORDER=
